<svg width="30" height="33" viewBox="0 0 30 33" fill="none" xmlns="http://www.w3.org/2000/svg">
<path d="M28.5 6C28.5 6.89002 28.2361 7.76004 27.7416 8.50007C27.2471 9.24009 26.5443 9.81686 25.7221 10.1575C24.8998 10.4981 23.995 10.5872 23.1221 10.4135C22.2492 10.2399 21.4474 9.81132 20.818 9.18198C20.1887 8.55264 19.7601 7.75082 19.5865 6.87791C19.4128 6.00499 19.502 5.10019 19.8425 4.27792C20.1831 3.45566 20.7599 2.75285 21.4999 2.25839C22.24 1.76392 23.11 1.5 24 1.5C25.1935 1.5 26.3381 1.97411 27.182 2.81802C28.0259 3.66193 28.5 4.80653 28.5 6Z" stroke="black" stroke-width="3" stroke-linecap="round" stroke-linejoin="round"/>
<path d="M10.5 16.5C10.5 17.39 10.2361 18.26 9.74162 19.0001C9.24715 19.7401 8.54434 20.3169 7.72208 20.6575C6.89981 20.9981 5.99501 21.0872 5.1221 20.9135C4.24918 20.7399 3.44736 20.3113 2.81802 19.682C2.18868 19.0526 1.7601 18.2508 1.58647 17.3779C1.41283 16.505 1.50195 15.6002 1.84254 14.7779C2.18314 13.9557 2.75991 13.2529 3.49994 12.7584C4.23996 12.2639 5.10999 12 6 12C7.19348 12 8.33807 12.4741 9.18198 13.318C10.0259 14.1619 10.5 15.3065 10.5 16.5Z" stroke="black" stroke-width="3" stroke-linecap="round" stroke-linejoin="round"/>
<path d="M28.5 27C28.5 27.89 28.2361 28.76 27.7416 29.5001C27.2471 30.2401 26.5443 30.8169 25.7221 31.1575C24.8998 31.4981 23.995 31.5872 23.1221 31.4135C22.2492 31.2399 21.4474 30.8113 20.818 30.182C20.1887 29.5526 19.7601 28.7508 19.5865 27.8779C19.4128 27.005 19.502 26.1002 19.8425 25.2779C20.1831 24.4557 20.7599 23.7529 21.4999 23.2584C22.24 22.7639 23.11 22.5 24 22.5C25.1935 22.5 26.3381 22.9741 27.182 23.818C28.0259 24.6619 28.5 25.8065 28.5 27Z" stroke="black" stroke-width="3" stroke-linecap="round" stroke-linejoin="round"/>
<path d="M9.88501 18.7649L20.13 24.7349" stroke="black" stroke-width="3" stroke-linecap="round" stroke-linejoin="round"/>
<path d="M20.115 8.26489L9.88501 14.2349" stroke="black" stroke-width="3" stroke-linecap="round" stroke-linejoin="round"/>
</svg>
